/* XPM */
static char *_9230cc67b544345e30ae395bd5e5fe5f8k75V653XGsdfH6[] = {
/* columns rows colors chars-per-pixel */
"18 23 12 1 ",
"  c None",
". c #32222E",
"X c #323751",
"o c #793D4E",
"O c #B53772",
"+ c #B15C51",
"@ c #E97461",
"# c #017687",
"$ c #00C19A",
"% c #FB9585",
"& c #85A3C7",
"* c #FBE2D0",
/* pixels */
"                  ",
"                  ",
"    . .......     ",
"   ....ooooo.     ",
"   ...ooooooo...  ",
"   ...ooooooooo.  ",
"  ....oo+++++oo.  ",
"  .....ooooooo.   ",
"  ..O@.O..@%..o.  ",
"  ..@@..*.%%...   ",
"   .O@.%&o%%oO    ",
"   .##O@%%%%%O    ",
"  .#$##O@%%%@#    ",
" .#$$$##OO@#X@O   ",
" .O@@#X######@%O  ",
" .@@%%X##$$$#@%O  ",
"  .@%%%oooooo@.   ",
"   .@%.X####$.    ",
"    ..X#$$X#$.    ",
"    .X#$$#X##o.   ",
"    .oo##..ooo.   ",
"   .ooooo......   ",
"   ......         "
};
