/* XPM */
static char *d6d5ef327d7745a9f014563fb52378dcokVcf4o8c0AcOZkg[] = {
/* columns rows colors chars-per-pixel */
"64 64 232 2 ",
"   c None",
".  c #4C0000",
"X  c #500000",
"o  c #520000",
"O  c #560000",
"+  c #580000",
"@  c #5B0000",
"#  c #5A0001",
"$  c #5C0000",
"%  c #5F0000",
"&  c #5F170B",
"*  c #5F1A0E",
"=  c #600000",
"-  c #610000",
";  c #620000",
":  c #630000",
">  c #650000",
",  c #660000",
"<  c #670000",
"1  c #670100",
"2  c #680000",
"3  c #690000",
"4  c #6A0000",
"5  c #6E0000",
"6  c #6F0000",
"7  c #700000",
"8  c #710000",
"9  c #720000",
"0  c #730000",
"q  c #750000",
"w  c #760000",
"e  c #770000",
"r  c #780000",
"t  c #7C0000",
"y  c #7D0100",
"u  c #7E0000",
"i  c #7F0000",
"p  c #6D190D",
"a  c #6B1E10",
"s  c #472B1C",
"d  c #552012",
"f  c #572514",
"g  c #572617",
"h  c #5C2613",
"j  c #5C2617",
"k  c #582A19",
"l  c #762C12",
"z  c #752E14",
"x  c #7E331A",
"c  c #403923",
"v  c #613424",
"b  c #6B3C2C",
"n  c #614731",
"m  c #754A38",
"M  c #800000",
"N  c #820000",
"B  c #830000",
"V  c #830101",
"C  c #830102",
"Z  c #840000",
"A  c #850000",
"S  c #860000",
"D  c #870000",
"F  c #880000",
"G  c #8B0000",
"H  c #8D0000",
"J  c #8E0000",
"K  c #8F0000",
"L  c #910000",
"P  c #920000",
"I  c #930000",
"U  c #950000",
"Y  c #980000",
"T  c #990000",
"R  c #9B0000",
"E  c #9D0000",
"W  c #9E0000",
"Q  c #9F0000",
"!  c #821217",
"~  c #A10000",
"^  c #A20000",
"/  c #A30000",
"(  c #A40000",
")  c #A80000",
"_  c #A90000",
"`  c #AA0000",
"'  c #AB0000",
"]  c #AC0000",
"[  c #AE0000",
"{  c #B00000",
"}  c #B10000",
"|  c #B10101",
" . c #B30000",
".. c #B20101",
"X. c #B40000",
"o. c #B50000",
"O. c #B60000",
"+. c #B70000",
"@. c #B80000",
"#. c #BB0000",
"$. c #BC0000",
"%. c #BD0000",
"&. c #A61800",
"*. c #B80911",
"=. c #B91F11",
"-. c #8F2E14",
";. c #833D26",
":. c #BC262F",
">. c #B53831",
",. c #C00000",
"<. c #C10000",
"1. c #C30000",
"2. c #C50000",
"3. c #C60000",
"4. c #C70000",
"5. c #C80000",
"6. c #CC0000",
"7. c #CD0000",
"8. c #D00000",
"9. c #D10000",
"0. c #D30000",
"q. c #D30202",
"w. c #D40000",
"e. c #D60000",
"r. c #D70000",
"t. c #D80000",
"y. c #D90000",
"u. c #DA0000",
"i. c #DB0000",
"p. c #DC0000",
"a. c #DE0000",
"s. c #D61418",
"d. c #D81818",
"f. c #DF1A1B",
"g. c #E10000",
"h. c #E70000",
"j. c #E60101",
"k. c #EA0101",
"l. c #EE0000",
"z. c #ED0202",
"x. c #F40101",
"c. c #F70000",
"v. c #FB0000",
"b. c #FD0000",
"n. c #FE0000",
"m. c red",
"M. c #FF0002",
"N. c #F60F10",
"B. c #F71D1F",
"V. c #D82010",
"C. c #F92412",
"Z. c #D70D2E",
"A. c #DD1B23",
"S. c #DE2026",
"D. c #D33939",
"F. c #E22625",
"G. c #FF2121",
"H. c #FF2223",
"J. c #FF2227",
"K. c #FF272B",
"L. c #FF272E",
"P. c #E83B2F",
"I. c #E92C38",
"U. c #E73230",
"Y. c #E83F30",
"T. c #E0383F",
"R. c #F53030",
"E. c #8C442C",
"W. c #95422F",
"Q. c #884F3A",
"!. c #8A503B",
"~. c #8B543E",
"^. c #965037",
"/. c #92523C",
"(. c #E64831",
"). c #E64C3B",
"_. c #FF3B40",
"`. c #8B5541",
"'. c #9E5541",
"]. c #9F5E45",
"[. c #945E48",
"{. c #A25A40",
"}. c #A36047",
"|. c #A36048",
" X c #A6674F",
".X c #AA684F",
"XX c #EA4647",
"oX c #E7404B",
"OX c #FC444F",
"+X c #F74B4C",
"@X c #F54D4C",
"#X c #FC494B",
"$X c #FD4B4B",
"%X c #FF4C4A",
"&X c #F84A4F",
"*X c #FD4A4F",
"=X c #FC4E4F",
"-X c #FF4E4F",
";X c #FC4B53",
":X c #FC5257",
">X c #FB5655",
",X c #FB5456",
"<X c #FF5A52",
"1X c #FF5D51",
"2X c #FC5F53",
"3X c #FB6457",
"4X c #FF6C5B",
"5X c #F47454",
"6X c #FE7253",
"7X c #FC735D",
"8X c #F87959",
"9X c #FC795E",
"0X c #FF6F61",
"qX c #F8815B",
"wX c #FC8160",
"eX c #FD8362",
"rX c #FF8365",
"tX c #FC8966",
"yX c #FF8866",
"uX c #FF8A67",
"iX c #FE9A6B",
"pX c #FF9E6F",
"aX c #FDA173",
"sX c #FCA472",
"dX c #FDA775",
"fX c #FCA872",
"gX c #FCAB74",
"hX c #FDAC75",
"jX c #FCB076",
"kX c #FDB97B",
"lX c #FCBC7D",
"zX c #FCBF7F",
/* pixels */
"                                                                                                                                ",
"                                                                                                                                ",
"                                                                                                                                ",
"                                                                                                                                ",
"                                                                                                                                ",
"                                                                                                                                ",
"                                                                                                                                ",
"                                                                                                                                ",
"                                                                                                                                ",
"                                                                                                                                ",
"                                                                                                                                ",
"                                                                                                                                ",
"                                                                                                                                ",
"                                                                                                                                ",
"                                                                                                                                ",
"                                                                                                                                ",
"                                                                                                                                ",
"                                                                                                                                ",
"                                                                                                                                ",
"                                                                                                                                ",
"                                                ;.E.v                                                                           ",
"                                              z {..X~.k                                                                         ",
"                                            # O g ~.|.g 1 4 1                                                                   ",
"                                          . { T.:.W.[.j i 5 i 7                                                                 ",
"                                        e X.I.4X).&.n s U y...K 5       l h                                                     ",
"                                        F y.3XpX5XZ.>.=.D.N.w.' F 1     ^./.b                                                   ",
"                                        i 0.qXkXaX0X<XK.;Xd.y.4.T $   ;.]. X!.d                                                 ",
"                                        i 0.8XhXlXfX9X*Xb.y.y.<.P 1 M ! * }.Q.& e e 7                                           ",
"                                        i w.;XwX7X:X$Xb.b.a.y.<.F D f.,X*.'.m p D D D 7                                         ",
"                                        M X.s.C.%X#Xb.b.a.y.<.D T F.>XqXV.-.c a 4.x.^ D 5                                       ",
"                                          i [ y.B.G.b.a.y.%.X.i E Y.yXjX@XoXF.U.XXg.6.' D                                       ",
"                                          4 K { y.l.j.0.%.{ ^ e E (.pXlXdXyX1X_.R.0.w.X.D                                       ",
"                                          : 7 P X.6.4.4.[ ( D : ^ Y.rXhXsXtX2XL.v.0.w.X.D                                       ",
"                                            : 7 P E T E ^ M 4 O E A.+X6X;XOXJ.b.l.w.6.' M                                       ",
"                                              1 1 : : : : 1   X D { w.b.;XH.b.k.6.6.( D 7                                       ",
"                                                                X D X.y.b.b.j.w.6.' [ e                                         ",
"                                                                  M P { y.a.a.4.[ [ F t                                         ",
"                                                                  1 M P X.%.%.@.( K e O                                         ",
"                                                                    1 t K K K P K 7 #                                           ",
"                                                                      1 # # O O # :                                             ",
"                                                                                                                                ",
"                                                                                                                                ",
"                                                                                                                                ",
"                                                                                                                                ",
"                                                                                                                                ",
"                                                                                                                                ",
"                                                                                                                                ",
"                                                                                                                                ",
"                                                                                                                                ",
"                                                                                                                                ",
"                                                                                                                                ",
"                                                                                                                                ",
"                                                                                                                                ",
"                                                                                                                                ",
"                                                                                                                                ",
"                                                                                                                                ",
"                                                                                                                                ",
"                                                                                                                                ",
"                                                                                                                                ",
"                                                                                                                                ",
"                                                                                                                                ",
"                                                                                                                                ",
"                                                                                                                                ",
"                                                                                                                                "
};
