/* XPM */
static char *ad981f94fed245df98361dd631d5d0d00IjiTAkqmgWkCOkr[] = {
/* columns rows colors chars-per-pixel */
"64 64 124 2 ",
"   c None",
".  c #5D4508",
"X  c #6B4E05",
"o  c #614708",
"O  c #634A09",
"+  c #694E09",
"@  c #6F540A",
"#  c #7B5B04",
"$  c #73560A",
"%  c #775909",
"&  c #7C5D0B",
"*  c #7F6008",
"=  c #836107",
"-  c #8B6504",
";  c #8F6B02",
":  c #83620C",
">  c #8A640C",
",  c #8C690D",
"<  c #936C04",
"1  c #946E0B",
"2  c #977004",
"3  c #9D7302",
"4  c #96710C",
"5  c #9E7509",
"6  c #A17500",
"7  c #A47A00",
"8  c #A97E00",
"9  c #A27708",
"0  c #A67C0B",
"q  c #AB7E0D",
"w  c #AE7F11",
"e  c #AD8101",
"r  c #AB810F",
"t  c #B38403",
"y  c #BB8B04",
"u  c #B0850F",
"i  c #B68A0B",
"p  c #BB8C0C",
"a  c #BE9400",
"s  c #BF900D",
"d  c #B48511",
"f  c #BF9110",
"g  c #C08D09",
"h  c #C39304",
"j  c #C89606",
"k  c #C69D02",
"l  c #CB9F02",
"z  c #C4930C",
"x  c #CA960B",
"c  c #CD9A0C",
"v  c #D19C0E",
"b  c #C59511",
"n  c #C99711",
"m  c #CC9A12",
"M  c #D19B12",
"N  c #CCA100",
"B  c #CFA20E",
"V  c #D2A602",
"C  c #D5A900",
"Z  c #D5A30E",
"A  c #D9A50D",
"S  c #D7AA0C",
"D  c #DAAC0D",
"F  c #DDB200",
"G  c #D5A211",
"H  c #DDA712",
"J  c #D7A810",
"K  c #DEA813",
"L  c #E1AB0E",
"P  c #E1B100",
"I  c #E2B900",
"U  c #E4B409",
"Y  c #EBBD0A",
"T  c #E0AE10",
"R  c #E4AC12",
"E  c #E5AD12",
"W  c #E6AD13",
"Q  c #E1A914",
"!  c #E3AA15",
"~  c #E5AB14",
"^  c #E7AE14",
"/  c #E5AC16",
"(  c #E1AA11",
")  c #E8AF13",
"_  c #E9B211",
"`  c #EFB811",
"'  c #EAC100",
"]  c #E9C002",
"[  c #EDC400",
"{  c #ECC206",
"}  c #EDC206",
"|  c #EDC109",
" . c #EFC208",
".. c #F5C602",
"X. c #F0C107",
"o. c #F0C505",
"O. c #F2C507",
"+. c #F3C800",
"@. c #F4C800",
"#. c #F4CA00",
"$. c #F7C907",
"%. c #F7CA07",
"&. c #F8CE00",
"*. c #FACD06",
"=. c #FCCE07",
"-. c #F1C408",
";. c #F5C509",
":. c #F5C608",
">. c #F6C60A",
",. c #F3C00E",
"<. c #F6C30E",
"1. c #FAC70E",
"2. c #FACB08",
"3. c #F9C80D",
"4. c #FAC90C",
"5. c #F9D000",
"6. c #FDD300",
"7. c #FDD301",
"8. c #FED400",
"9. c #FFD500",
"0. c #FFD502",
"q. c #FED104",
"w. c #FED105",
"e. c #FFD802",
/* pixels */
"                                                                                                                                ",
"                                                                                                                                ",
"                                                                                                                                ",
"                                                                                                                                ",
"                                                                                                                                ",
"                                                                                                                                ",
"                                                                                                                                ",
"                                                                                                                                ",
"                                                                                                                                ",
"                                                                                                                                ",
"                                                                                                                                ",
"                                                                                                                                ",
"                                                                                                                                ",
"                                                                                                                                ",
"                                                                                                                                ",
"                                                                                                                                ",
"                                                                                                                                ",
"                                                                                                                                ",
"                                                                                                                                ",
"                                                                                                                                ",
"                                                            h y y h                                                             ",
"                                                          l 9.W W m a                                                           ",
"                                                        N w.~ e e ^ M y                                                         ",
"                                                        F &.t Q Q t z x                                                         ",
"                                        6 7 7 8         F 0.m m m [ S t 6 7 8 8                                                 ",
"                                      e ..D ( v t     X i ,.=.o.o.3.i F U Q A i                                                 ",
"                                    a @.3.c x K Z e   # 9 i { Y Y c C ;.L j v Q y                                               ",
"                                    P e.x z h c M c < # e q q q q 6 5.U z h x v n e                                             ",
"                                    C 7.i Q Q N c h 2   , s 5 5 5 7 &.V v ^ Z k n e                                             ",
"                                    N w.` Z Z w.J y -     * b b b 5 ] <.L B Y $.p 6                                             ",
"                                    : m 9.9.9._ y = o       % @ + $ w } 9.9.;.M 3 $                                             ",
"                                      > n b n t ,   7 a t t e     8 < i n n p 3 < e                                             ",
"                                        : & % :   - I 2.^ Q b 8   + b 0 : - - 2 8 @                                             ",
"                                                2 I 3.A 8 y ^ b e e ; p n n s 7 ; e                                             ",
"                                                3 ..P g Q Z t m t - s 0 < 4 1 2 e *                                             ",
"                                                6 ..Y M m Z ] m t X , p z s i 7 =                                               ",
"                                                = Z >.$.{ -.` y 5     4 u r r =                                                 ",
"                                                  > S O.| Y x < O       . . o                                                   ",
"                                                    1 d r w ; O                                                                 ",
"                                                      + o O @                                                                   ",
"                                                                                                                                ",
"                                                                                                                                ",
"                                                                                                                                ",
"                                                                                                                                ",
"                                                                                                                                ",
"                                                                                                                                ",
"                                                                                                                                ",
"                                                                                                                                ",
"                                                                                                                                ",
"                                                                                                                                ",
"                                                                                                                                ",
"                                                                                                                                ",
"                                                                                                                                ",
"                                                                                                                                ",
"                                                                                                                                ",
"                                                                                                                                ",
"                                                                                                                                ",
"                                                                                                                                ",
"                                                                                                                                ",
"                                                                                                                                ",
"                                                                                                                                ",
"                                                                                                                                ",
"                                                                                                                                ",
"                                                                                                                                "
};
