/* XPM */
static char *ea49f7b589e646fb812e5a95e94341d3MnMi5gVCj9y21hEj[] = {
/* columns rows colors chars-per-pixel */
"43 43 11 1 ",
"  c None",
". c #1F1B0E",
"X c #38311A",
"o c #4E4117",
"O c #655320",
"+ c #645420",
"@ c #766329",
"# c #897233",
"$ c #9D8543",
"% c #9B854C",
"& c #A99458",
/* pixels */
"                                           ",
"                                           ",
"                                           ",
"                                           ",
"                                           ",
"                                           ",
"                                           ",
"                                           ",
"                                           ",
"                 O+%&%#+O                  ",
"               ##@+#&%+@#$&O               ",
"             #+%#@+#&#o@$&$+@O             ",
"           #+#+%##o@%@o@$&&+#&$            ",
"          @+o@+###o@#+o@#$&+$&@&           ",
"         +ooo++@#@o+@+o+@#&o$$@&&          ",
"        o++oo+@+@+oo+o+#+o#+$&+&&#         ",
"        oo+ooo@o+#+ooo##+#oo#$o&$@O        ",
"       oXo+oX+@++#@oo+@#+$+o##+&$@@        ",
"       XXXooX+@+@#@o+@+@#$@+#@o$#+#        ",
"      oXXoXoXo@+@#@+o@#+##@o$#o#$+#@       ",
"      XXXX+XXX+o@@@+o+@o#$@o$$o$$+$@       ",
"      XXXoXoXoX+o@++X+++##++$#o#$@#@       ",
"      XXXXoXXX+Xo@+ooo+o@#+o$#o@$@$@       ",
"      oX.oXoXoXoX+ooXooo@@+o#@o@#@$@       ",
"      +XXXoXXXoXoXoX.oXo+ooX@oo+@@$@       ",
"       X.XXX.XXXXXXX.XXXoXXXoo+o@@#        ",
"       o.Xo...X.X.X...X.X.XXXoXo+@@        ",
"        X.XX.X.X.X.X...X.X.X.XXXo@O        ",
"        o.X...X.X.......X.X.X.XXX+         ",
"         o.X.X.............X.XX.o          ",
"          o...................Xo           ",
"           oX................Xo            ",
"            OoX............XoO             ",
"              OoX........XoO               ",
"                 OooooooO                  ",
"                                           ",
"                                           ",
"                                           ",
"                                           ",
"                                           ",
"                                           ",
"                                           ",
"                                           "
};
