/* XPM */
static char *c1a12d41aae54f9ca11060444d3258c0P8DLaoO7siAl4xLN[] = {
/* columns rows colors chars-per-pixel */
"64 64 34 1 ",
"  c #649400",
". c #649500",
"X c #659700",
"o c #679A00",
"O c #689B00",
"+ c #6A9D00",
"@ c #6C9F00",
"# c #6BA000",
"$ c #6DA001",
"% c #6EA300",
"& c #6DA400",
"* c #6EA400",
"= c #6FA601",
"- c #70A601",
"; c #70A701",
": c #70A502",
"> c #71A602",
", c #71A901",
"< c #73AA01",
"1 c #73AB02",
"2 c #73AA03",
"3 c #74AB03",
"4 c #74AC03",
"5 c #75AD03",
"6 c #77AF03",
"7 c #78AF03",
"8 c #77B003",
"9 c #77B004",
"0 c #78B103",
"q c #79B204",
"w c #7AB204",
"e c #7BB404",
"r c #7AB405",
"t c #7CB505",
/* pixels */
"*%++#***++%*#,qq,%*%+O+@%**%++%**#XX+*+%%*******q9********%**##+",
"*%+%%%**+%%**,50,***%%+%%***%#%%*%oo%%++%*##***:552:**,--%%%*%%#",
"*%*%%+@+%%++%*-,95-*7q-*****%%**+#%%%%+%%#oo%****-99--q9-%+@+%%%",
"*%%%@+++**+%%**-59*,q5-+#*****,-%+%*%%%+%%XX#***O*5q--5q,%@+++#%",
"+#@+@+%%%%+@%%+#-,**,%oo&*%+%,95%%%%+O%%*#++%**%@@*,**-*%+%*%%+%",
"@++++%-,*%%+%%*++#**%O X#*++%,qq,%%%%%%*%%#%%%%%@@%%**%%++%*,*%+",
"++@%@-59-**%%+%+Xo%*%O X#*++#,9q,%+%57%%*%%%+#%*%%**#%%#XX%,7q%+",
"@%-,-,55,#%%+#*%oX%%@Ooo**#%%*55%%@:qq@O*,:*%#%*%*%#+@%+oo+-qr,,",
"*-5qq5,*%*%+%*%#@%%%++*%%*#%****%+%%2***5qq5-%++%%oX++++%++*5rqq",
"*,0tr5*#**++%*,,,,%%*+*-,,*****%+%*+%*%*5qrq-%%%:@X O+**#%+%3qqt",
"%-rt,*%%**++%-5qqq**%%+,5q2%*****#oo#*@#*5qq-*q5-%XXO%%+oo+*-,qt",
"*-5q**%*#%#%#-0tq00*%**,q9-+*****#  +%%+#%55,,75-+OO+@%%oX%**-,5",
"**,,%%#+oo#%+%*,7qr5--77,%Oo+%%**+X o*%%***295:*@+%+%**%++%**%%%",
"*%%+%%%oXX+%%+%*2qtq--qq,+XXO%%#++ooO+%*****55%O@@*****%%+%%*%@O",
"*+oo%%%OXXO%%%+@%,q7::qq-O X+%@@**##@+@+****,**%%%+%%***%+@++%%%",
"*Ooo%*%%oX+#%%@+%:22@@57:oXX%%+@****@@+%%+%*%%*%%%%%%***,-%+++%%",
"%+#%++**+O@:%%#++%%%O@--*#++++XX%*+%%**%oo+#%%@@%,55-*%,q5*%%%+#",
"+#%%+%%%%*-,%%#+++++@@%%**%+++Xo#*@+%**+ X+%%%%++*55,-%%q5,%*%%+",
"**#%%%+%,007%%%%%%+@%%%***%%%oo+%%%%*%%+  #*%%%%**,2q5*+%:%***%%",
"**++%%+%5qtr5%%*,*%+%%%%%%%%%+@%%*-,*%++oo#**%%%****q7*+O@%%*%%*",
"#OXXo+%%*,qr00%-9q*#**#%**#%+%%%%-q5-*%%+*+#*%#%**%*:,*%%%+%+%%*",
"@oXX+%*%%%,qtq,,q92*%#++*##+*%%%#,qq,-%%**+**#+@%*%%%*%*#%+++##*",
"@OXX#***%%-,0tt7,*%*%O***%%%%+%%%%-,q5,*%*%**%++%***%*#+oX++%***",
"@+XX%***%%%-,qq5-*%%+%**,*%%+%--*%*-qr-**-*%%%@%%++o#*#+Xo+#****",
"%%+O@%%%+%%*%%-,*%@@%%%,5,,#%*5q%+%-qq*,q9*++@%#++XX+*%%#%***%**",
"*%@@++%%++%%@++%*%%@**#-5q,-%-qq-+%*52*-5q-++%*,*oXoo+%****,*%%%",
"*%@+%%%%++%%+Ooo%*%%****-,qq%%5q%+%%2*%@*,%%%-55*+%+++**#*qq-%++",
"*%@%*,*%***%%o  +%%%**%%*-q5%%52%+%%%%+++%%%%%59,,,%%%%%*5r9,%+%",
"**#*q9-%#*00-+XX+#%***%+%*,-***,%%%#%#+#%%+%***,5qq5*+*,5rr5**%%",
"#*%,0q,-%,qt,%oo+%,**#+#%%#%**%%%%++%%+%%%++%***5qtq5**-qrq9-*%%",
"++**-,q0--rq,%@##,55-*%%*%+@*%+@+#%%-**%++Xo%%%*-,qrq0*-qq2***++",
"#%%%%*q5--75-%**%*59,,%%*%##%%#++#*%%#**%oXX%*%%%*,qtq,*,5*#%*+#",
"%%+%%%%***,,*%%#**-25q-%*%#%+%+#%*-%oo#*%+ o+*#+*%%*q92%%%*%oXO%",
"**@+%%++%%@+%%++%*%-qq,**,*%@+++%**#oX%*%%Oo**##*%+%55*%+O%%oo*:",
"**++%%*%*%oX++%%**%-qq--q9,%%@XX+@%*##%**%+O%*%%**%%%*-%%%++##**",
"%%%+%*,-*#oX+%%%***-52%%8q*%%%X O%%*,,*%%%%%#***#%%%%%%%**%+***#",
"%*##%-q5,%##%##%%%%*-**%-***%ooo+*%-5q****%*#%%%#%%***@%**%%**oo",
"%*,,-,9q-***%%++%%**#%+#%%*%#+ O%%%-qr2*****,,*%%+%%##o%***,*%o ",
"#*5q952,*%%+%%OX#%%#%%%%+%%**%%%**@%qqr0-%**9q2*%#++ooO+%*55**##",
"*9rrq5*#%%+#%@XX%%++%***++%*%%%%%%+%,0t0-**,q5*%%%%+X O*%,492,**",
"9rqq,**%#+++%#XX#%o +***%%%%*%%+%%+#%2q5*%5q:*%%%+*+ X%****299**",
"rrq,-%%%%+#%%%oo#%oo++%***--*%O%%%#+%%52+%q5%+#%+%*#oo#*%%**qr,*",
"r0,******#%%%*++%*##%%+%#,99-*%%**%#+@%%%*:,%###%%#*+*#++#%2qq-*",
"05*%%*%%****-*%+%*****++%,qr,-*%**-,%+++%%%*%%%#+%+#**%+++#=55**",
",**+%%+%%*%,5q*%%%*+**%#%*9rr5-#%*7q-%#%*%%+%**#oXO@%**#XX%*%*%+",
"#%++%%%+%*%-qq,*,*@*%%****59tq-%*,77%%%%*%+#****oX+%%%*#oo#*%%%+",
"+%%%**%%%+*-qq,-99,+##****-,q5%%qq-%%%#%%**#%***+%%%%%***++#**%#",
"#+%%**%+++%,5,*-57*%###%%%%-55%*q5%+%%#@#*,,**%#*-%%-,-***%+%***",
"*+oo%#oXo%%%,**+%%*%*%oXO%%*-***-**%*%%%%,q5,+++**#,q5-%**%%+%%%",
"*%oo*#XXo%%%%+%+++%%*+oo+@#%*****%#%%%%*%-0q,-%%**-,qq,%**%%++%*",
"*%#%%o  +%*%%#%%%%@@%%#%%%#%#**%#+XX+#%*%%*25qq0--5rrq-#*%%OXX#*",
"*%%%#+oo%**%+##%*%+%-,***%@+***%++oo+#%%%%%%5qrr,-qr93*%*%%OXo%*",
"*%*+*%%%*%%%%*%#@@@%05**%*%%%%*%*O@%%%*%%@+%*599*-99,%+%%***%+%+",
"*#+**-***---**2*%+%-q0q****-,**%+%%****%++O+#%91*-33+O+%%*%*%%%+",
"**#*59,*%-00*-9q-%+-7rr5*##-qq*%**%%*%@+%+XX+,-*-%%%@+%**%++**%%",
"***,55**%,qq,,99-%O%,qrq2*,,5q-***,**%@%%%OO%**%**++++****%%***#",
"*:q5*%%*%-8rq5,,**+@*,r9--q9-%@@%,5q-%%@**%%%%%%+%%%oo#*#,5q-%O%",
"*5qq*+#*%*50tq-%%%##%-55*-59%OO+#-qq,-,-*%%*,%%*%O%%XX#%%,9q,-@+",
"qqt9***%%+%2q7%+@+##%****+*2-+XX%*,,50q5-%%-qq**%%*%X +%%*,2q9-%",
"tq53%*%%%O%*22%@+@O+%%*#@@@%%%oO#%%*5qtq,%*2q5,*%+%+oX+#%##,qq-%",
"t52*%+%%%%*%%%%%%+o %*%%%%*%%++%+%%**,qq--qq5**%oo++##*%%O%-qq-*",
"55**##%%***%++%*%%oo%%--**%%++**++%*%*55%%5q*#*+oXO%%%**+%@-,5*%",
",***%#%#%%++O%%*%++*%-q7-%+@+%%%##%%+%%-**:*%+#%%#%%@%**%%%+%***",
"*****%++%%%+++%%+%****qq,%++++%%%+**++%%++*%#+++%%%%@+%**%@+O+**"
};
