/* XPM */
static char *result[] = {
/* columns rows colors chars-per-pixel */
"64 64 9 1 ",
"  c #323133",
". c #403E3F",
"X c #4D433D",
"o c #584639",
"O c #685336",
"+ c #7A6233",
"@ c #8B803F",
"# c #B1A35A",
"$ c None",
/* pixels */
"$$$$$$$$$$$$$$$$$$$$$$$$$$$$$$$$$$$$$$$$$$$$$$$$$$$$$$$$$$$$$$$$",
"$$$$$$$$$$$$$$$$$$$$$$$$$$$$$$$$$$$$$$$$$$$$$$$$$$$$$$$$$$$$$$$$",
"$$$$$$$$$$$$$$$$$$$$$$$$$$$$$$$$$$+$$$$$$$$$$$$$$$$$$$$$$$$$$$$$",
"$$$$$$$$$$$$$$$$$$$$$$$$$$$$$$$$$$+$$$$$$$$$$$$$$$$$$$$$$$$$$$$$",
"$$$$$$$$$$$$$$$$$$$$$$$$$$$$$$$$$$@$$$$$$$$$$$$$$$$$$$$$$$$$$$$$",
"$$$$$$$$$$$$$$$$$$$$$$$$$$$$$$$$$$@+$$$$$$$$$$$$$$$$$$$$$$$$$$$$",
"$$$$$$$$$$$$$$$$$$$$$$$$$$$$$$$$$$+@$$$$$$$$$$$$$$$$$$$$$$$$$$$$",
"$$$$$$$$$$$$$$$$$$$$$$$$$$$$$$$$$$O#$$$$O$$$$$$$$$$$$$$$$$$$$$$$",
"$$$$$$$$$$$$$$$$$$$$$$$$$$$$OO$$$$$#o$Oo$$$$$$$$$+$$$$$$$$$$$$$$",
"$$$$$$$$$$$$$$$$$$$$$$$$$$$$$$O+$$$#oOo$$$$$$$$$+.$$$$$$$$$$$$$$",
"$$$$$$$$$$$$$$$$$o$$$$$$$o$$$$$O+$$#Oo$$$$$$$$$+o$$$$$$$$$$$$$$$",
"$$$$$$$$$$$$$$$$$+$$$$$$+o$$$$$$o@$@+$$$$$$$$$+O.$$$$$$$$$$$$$$$",
"$$$$$$$$$$$$$$$$+o$$$$$+o$$$$$$$$o#+@$$$$$$$$@O.$$$$$$$$$$$$$$$$",
"$$$$$$$$$$$$$$$$+.$$$$$@o$o$$$$$$$o#@O$$$$$$@O.$$$$$$$$$$$$$$$$$",
"$$$$$$$$$$$$$$$+o$$$$$+@$$.$$$$$$$$o#@$$$$$@O.$$$$$$$$$$$$$$$$$$",
"$$$$$$$$o@#$$$+#.$$$$$#o$$.o$$$$$$$$+#o$$$#O.$$$$o..$$$$$$$$$$$$",
"$$$$$$$$$$o@###@.$$$$+@o$$$.$$$$$$$$o#O$$#+.$$OO..$$$$$$$$$$$$$$",
"$$$$$$$$$$$$..@#+o$$+#+$$$$.O$$$.$$$$#+o###@+O..$$$$$$$$$$$$$$$$",
"$$$$$$$$$$$$$$.@@##+#@o$$$$$oO$o.$$$$@#+@+Oo..$$$$$$$$$$$$$$$$$$",
"$$$$$$$$$$$$$+@++@##@+o$$$$$.Oo.$$$$$@#@+O..$$$$$$$$$$$$$$$$$$$$",
"$$$$$$$$$$++oo...oO+@@+$$$$$.OO.$$$$$##+o.$$$$$$$+$$$$$$$$$$$$$$",
"$$$$$$$$$$$$$$$$$$$.o#@+$$$$$oO.$$$$O#@O.$$$$$$$$+$$$$$$$$$$$$$$",
"$$$$$$$$$$$$$$$$$$$$.o#@+$$$$oO.$$$O#@O.$$$$$$$$o@$$$$$$$$$$$$$$",
"$$$$$$$$$$$$$$$$$$$$$.+#@+o$$oo.$$o#@+.$$$o$$$$$+X$$$$$$$$$$$$$$",
"$$$$$$$$$$$$+$$$$$$$$$.+#@+O....$o#@+.$$$$+$$$$$@X$$$$$$$$$$$$$$",
"$$$$$$$$$$$$@$$$$$$$$$$.+##@OoooO##@o$$$$oX$$$$o@.$$$$$$$$$$$$$$",
"$$$$$$$$$$$$@+$$$$$$+@@+O+##@O+@##@+.$$$$+.$$$$@+.$$$$$$$$$$$$$$",
"$$$$$$$$$$$$$@o$$$++Oo....o+@+@##@+.$$$$o+$$$$@+oooo$$$$$$$$$$$$",
"$$$$$$$$$$$$$o#$$$$$$$$$$$.o+@##@+o.$$$$+X$$o@+oo..XXXX$$$$$$$$$",
"$$$$$$$$$$$$$$@+$$$$$$$$$$$.O@##@O.$$$$o+.o@@+o..$$$......$$$$$$",
"$$$$++@$$$$$$$+#o$$$$$$$+$$$.@#@+o.$$$$o@##@+o.$$$$$$$$$$$$$$$$$",
"$$$$$$X++@@$$$$@+o$$$$$+o$$$$@#@+o.$$$o##@++o++o$$$$$$$$$$$$$$$$",
"$$$$$$$$.XO+@##@@+o$$$$+$$$$$@#@+o.$o@##@+o...X++o$$$$$$$$$$$$$$",
"$$$$$$$$$$$.XXo+#@+o$$+o$$$$$@#@+Oo@##@+o..$$$..X++o$$$$$$$$$$$$",
"$$$$$$$$$$$$$$.XO+@+o+oX$$$$$##@O@##@+oX.$$$$$$$$..X+o$$$$$$$$$$",
"$$$$$$$$$$$$$$$$..+O+oXX$$$$$##@+##@+oX.$$$$$$$$$$$$..XX$$$$$$$$",
"$$$$$$$$$$$$$$$$$$@OOOOoX.$$.##@@@@+oX.$$$$$o$$$$$$$$$$$$$$$$$$$",
"$$$$$$$$O$$$$$$$$+o..XoOoX...##@+++oX.$$$$$$+$$$$$$$$$$$$$$$$$$$",
"$$$$$$$$$O$$$$$oX..$$$..ooXX.#@@O+oX.$$$$$$$@o$$$$$$$$$$$$$$$$$$",
"$$$$$$$$$Xo$$oX.$$$$O$$$.XXX.#@+OoX..$$$$$$$@+$$$$$$$$$$$$$$$$$$",
"$$$$$$$$$$@o$$$$$+$$oO$$$.XX.#@++o..$$$$$$$$@+$$$$$$$$o++Oo..$$$",
"$$$O+#@$$$X@O$$$$@$$$O$$$$.X.#@++OX.$$$$$$$.+o$$oo+@@@+o..$$$$$$",
"$$$$$.XO+@##@o$$$X@$$XO$$$$..@+++OX.$$$$$$.o+++@@@@+Oo.$$$$$$$$$",
"$$$$$$$$.XXO+@@o$X@$$$oX$$$$.@O+OOX..$$...o+@@@+o.....oo$$$$$$$$",
"$$$$$$$$$$$..Xo@##++$$Xo$$$$.@o+OOo....oOO@@+o...$$$$$..ooo$$$$$",
"$$$$$$$$$$$$$$.o+@###+oXX$$.@+o+OOo.XXoooOOOO+oo$$$$$$$$$$...$$$",
"$$$$$$$$$$$$$#+oX..o@##@@@@@+OoOO+o.XXXXX.....O+o$$$$$$$$$$$$$$$",
"$$$$$$$$$$$$#+X.$$$+@+++++++OooOO+o.XX...$$$$$..Oo$$$$$$$$$$$$$$",
"$$$$$$$$$$$@X.$$$$$@X....XXooXoOO+o.X.$$$$$$$$$$..o$$$$$$$$$$$$$",
"$$$$$$$$$$+.$$$$$$@o.$$$$..XXXXOO+o..$$$$$$$$$$$$$..$$$$$$$$$$$$",
"$$$$$$$$$$$$$$$$$$+.$$$$$$$...X+O+o.$$$$$$$$$$$$$$$$$$$$$$$$$$$$",
"$$$$$$$$$$$$$$$$$+.$$$$$$$$$.Xo+O+o.$$$$$$$$$$$$$$$$$$$$$$$$$$$$",
"$$$$$$$$$$$$$$$$$.$$$$$$$$$$.o+@O+o.$$$$$$$$$$$$$$$$$$$$$$$$$$$$",
"$$$$$$$$$$$$$$$$$$$$$$$$$$$$.++@O+o.$$$$$$$$$$$$$$$$$$$$$$$$$$$$",
"$$$$$$$$$$$$$$$$$$$$$$$$$$$$.+@@O+o.$$$$$$$$$$$$$$$$$$$$$$$$$$$$",
"$$$$$$$$$$$$$$$$$$$$$$$$$$$$.+@@++o.$$$$$$$$$$$$$$$$$$$$$$$$$$$$",
"$$$$$$$$$$$$$$$$$$$$$$$$$$.. +@@+oo ..$$$$$$$$$$$$$$$$$$$$$$$$$$",
"$$$$$$$$$$$$$$$$$$$$$$$$$.o@+@#@@+oooo.$$$$$$$$$$$$$$$$$$$$$$$$$",
"$$$$$$$$$$$$$$$$$$$$$$$$$$.o@##@@+@+o $$$$$$$$$$$$$$$$$$$$$$$$$$",
"$$$$$$$$$$$$$$$$$$$$$$$$$.+@##@#@++#@o $$$$$$$$$$$$$$$$$$$$$$$$$",
"$$$$$$$$$$$$$$$$$$$$$$$$$$ ++@+#++ooo $$$$$$$$$$$$$$$$$$$$$$$$$$",
"$$$$$$$$$$$$$$$$$$$$$$$$$$$   o++o   $$$$$$$$$$$$$$$$$$$$$$$$$$$",
"$$$$$$$$$$$$$$$$$$$$$$$$$$$$$$    $$$$$$$$$$$$$$$$$$$$$$$$$$$$$$",
"$$$$$$$$$$$$$$$$$$$$$$$$$$$$$$$$$$$$$$$$$$$$$$$$$$$$$$$$$$$$$$$$"
};
